# xmcd
#
# Track frame offsets:
#	150
#	16445
#	34685
#	48502
#	64405
#	82420
#	93157
#	104187
#	119390
#	135785
#	153372
#	164679
#	177183
#	187377
#	201180
#	212199
#	228249
#	245771
#	259690
#	277807
#
# Disc length: 3914 seconds
#
# Revision: 0
# Processed by: cddbd v1.5.2PL0 Copyright (c) Steve Scherf et al.
# Submitted via: SynApp - FreeCDDB Version: 2.3
#
DISCID=290f4814
DTITLE=The Raconteurs/Tom Petty and The Heartbreakers - Broken Boy Soldiers/Tom Petty and The Heartbreakers
DYEAR=2006
DGENRE=Country
TTITLE0=The Raconteurs - Steady, As She Goes
TTITLE1=The Raconteurs - Hands
TTITLE2=The Raconteurs - Broken Boy Soldier
TTITLE3=The Raconteurs - Intimate Secretary
TTITLE4=The Raconteurs - Together
TTITLE5=The Raconteurs - Level
TTITLE6=The Raconteurs - Store Bought Bones
TTITLE7=The Raconteurs - Yellow Sun
TTITLE8=The Raconteurs - Call It A Day
TTITLE9=The Raconteurs - Blue Veins
TTITLE10=Tom Petty and The Heartbreakers - Rockin' Around (With You)
TTITLE11=Tom Petty and The Heartbreakers - Breakdown
TTITLE12=Tom Petty and The Heartbreakers - Hometown Blues
TTITLE13=Tom Petty and The Heartbreakers - The Wild One, Forever
TTITLE14=Tom Petty and The Heartbreakers - Anything That's Rock and Roll
TTITLE15=Tom Petty and The Heartbreakers - Strangered In The Night
TTITLE16=Tom Petty and The Heartbreakers - Fooled Again (I Don't Like It)
TTITLE17=Tom Petty and The Heartbreakers - Mystery Man
TTITLE18=Tom Petty and The Heartbreakers - Luna
TTITLE19=Tom Petty and The Heartbreakers - American Girl
EXTD=2006 and 1976
EXTT0=
EXTT1=
EXTT2=
EXTT3=
EXTT4=
EXTT5=
EXTT6=
EXTT7=
EXTT8=
EXTT9=
EXTT10=
EXTT11=
EXTT12=
EXTT13=
EXTT14=
EXTT15=
EXTT16=
EXTT17=
EXTT18=
EXTT19=
PLAYORDER=
